<?xml version="1.0" encoding="UTF-8"?>
<svg width="512px" height="512px" viewBox="0 0 512 512" version="1.1" xmlns="http://www.w3.org/2000/svg" xmlns:xlink="http://www.w3.org/1999/xlink">
    <title>group</title>
    <defs></defs>
    <g>
      <path d="M261.609,499.758l245.938-176.234c2.828-1.922,4.453-4.922,4.453-8.172v-1  c-0.281-2.875-1.828-5.469-4.281-7.125l-71.516-51.234l71.344-51.125c2.828-1.906,4.453-4.938,4.453-8.172v-1  c-0.281-2.875-1.828-5.484-4.281-7.141L261.641,12.242c-1.656-1.188-3.594-1.812-5.656-1.844c-2.016,0.031-3.969,0.656-5.609,1.844  L4.406,188.477c-2.594,1.75-4.141,4.406-4.406,7.328v0.859c0,3.266,1.625,6.297,4.328,8.094l71.469,51.234L4.406,307.133  c-2.578,1.75-4.141,4.391-4.406,7.297v0.906c0,3.266,1.625,6.266,4.328,8.078l246.094,176.359c1.641,1.172,5.609,1.828,5.609,1.828  C258.031,501.57,259.953,500.945,261.609,499.758z M24.297,196.664L256,30.602l231.703,166.062L256,362.711L24.297,196.664z   M24.297,315.336l67.141-48.141l158.984,113.938c1.641,1.141,3.547,1.781,5.547,1.812c2.062-0.031,3.984-0.672,5.641-1.844  l158.953-113.906l67.141,48.141L256,481.367L24.297,315.336z"/>
    </g>
</svg>