<?xml version="1.0" encoding="utf-8"?>
<!-- Generator: Adobe Illustrator 21.1.0, SVG Export Plug-In . SVG Version: 6.00 Build 0)  -->
<svg version="1.1" id="Layer_1" xmlns="http://www.w3.org/2000/svg" xmlns:xlink="http://www.w3.org/1999/xlink" x="0px" y="0px"
	 viewBox="0 0 100 100" style="enable-background:new 0 0 100 100;" xml:space="preserve">
<g><path d="M50,12.5c-12.8,0-24.2,11.5-24.2,24.3c0,4,1.1,8,3,11.3c0.5,1,0.9,1.9,1.4,2.5c2.6,3.5,5.9,12.2,6.2,13.6l1,3.8h25.4   l0.8-3.8c0.3-1.4,3.7-10.1,6.2-13.6c0.5-0.7,1-1.5,1.3-2.4c2-3.5,3.1-7.5,3.1-11.5C74.2,24,62.7,12.5,50,12.5z M67.4,46.3   c-0.3,0.8-0.7,1.4-1,1.8c-3,4.1-7,13.6-7,16.1c0,0.1,0,0.2-0.1,0.3l-18.6,0c-0.1-0.1-0.1-0.2-0.1-0.3c0-2.5-4.1-12-7-16.1   c-0.3-0.4-0.6-1-1.1-2C30.8,43.3,30,40,30,36.8c0-10.4,9.6-20,20-20c10.4,0,20,9.6,20,20C70,40,69.1,43.3,67.4,46.3z"/><rect x="37.8" y="70.4" width="24.3" height="4.1"/><rect x="37.8" y="76.7" width="24.3" height="4.1"/><rect x="42.1" y="83" width="15.7" height="4.1"/></g>
</svg>
