<?xml version="1.0" encoding="utf-8"?>
<!-- Generator: Adobe Illustrator 21.1.0, SVG Export Plug-In . SVG Version: 6.00 Build 0)  -->
<svg version="1.1" id="Layer_1" xmlns="http://www.w3.org/2000/svg" xmlns:xlink="http://www.w3.org/1999/xlink" x="0px" y="0px"
	 viewBox="0 0 100 100" style="enable-background:new 0 0 100 100;" xml:space="preserve">
<g><g><path d="M68.6,67.7c-10.1,0-18.4-8.3-18.4-18.4s8.2-18.4,18.4-18.4S87,39.2,87,49.3S78.7,67.7,68.6,67.7z M68.6,34.6    c-8.1,0-14.7,6.6-14.7,14.7S60.5,64,68.6,64s14.7-6.6,14.7-14.7S76.7,34.6,68.6,34.6z"/></g></g><path d="M70.5,28.2c11,0,20,9,20,20v2.2c0,11-9,20-20,20H29.5c-11,0-20-9-20-20v-2.2c0-11,9-20,20-20H70.5 M70.5,24.4H29.5  c-13.1,0-23.8,10.7-23.8,23.7v2.2c0,13.1,10.7,23.7,23.8,23.7h40.9c13.1,0,23.8-10.7,23.8-23.7v-2.2C94.2,35.1,83.6,24.4,70.5,24.4  L70.5,24.4z"/>
</svg>
